<?xml version="1.0" encoding="UTF-8"?>
<svg id="Layer_2" data-name="Layer 2" xmlns="http://www.w3.org/2000/svg" viewBox="0 0 2778.25 1012.62">
  <defs>
    <style>
      .cls-1 {
        fill: #dbddda;
      }

      .cls-2 {
        fill: #02375e;
      }

      .cls-3 {
        fill: #1f6cb2;
      }
    </style>
  </defs>
  <g id="Layer_2-2" data-name="Layer 2">
    <g>
      <g>
        <circle class="cls-3" cx="506.31" cy="506.31" r="506.31"/>
        <g>
          <rect class="cls-1" x="728.95" y="807.61" width="33.38" height="33.38"/>
          <rect class="cls-1" x="590.5" y="833.06" width="33.38" height="33.38"/>
          <rect class="cls-1" x="426.94" y="819.31" width="33.38" height="33.38"/>
          <rect class="cls-1" x="511.49" y="880.25" width="33.38" height="33.38"/>
          <rect class="cls-1" x="340.88" y="837.83" width="33.38" height="33.38"/>
          <path class="cls-1" d="M506.31,31.09C244.27,31.09,31.09,244.27,31.09,506.31s213.18,475.22,475.22,475.22,475.22-213.18,475.22-475.22S768.35,31.09,506.31,31.09ZM711.82,900.82v-9.31h-33.38v25.06c-52.97,22.31-111.13,34.66-172.13,34.66-65.41,0-127.57-14.2-183.57-39.66v-31.31h-33.38v14.37c-19.16-10.75-37.45-22.86-54.73-36.23v-27.71h-32.5c-22.72-21.32-43.21-44.99-61.07-70.63h60.19v27.16h51.23v-27.16h84.12v27.16h51.23v-27.16h81.61v27.16h33.38v-27.16h133.08v27.16h69.31v-27.16h53.61v27.16h51.23v-27.16h61.49c-41,58.84-95.82,107.34-159.74,140.77ZM121.7,729.74c-21.49-36.86-37.84-77.07-48.05-119.64h50.14v-34.16h-56.93c-3.58-22.69-5.46-45.95-5.46-69.63,0-4.8.1-9.58.26-14.35h106.05v-34.16h-103.66c3.15-28.91,9.05-57,17.49-83.98h145.33v-34.16H93.81c12.05-29.72,27.21-57.85,45.09-83.98h149.13v-34.16h-123.28C246.44,123.73,369.23,61.4,506.31,61.4c245.33,0,444.91,199.59,444.91,444.91,0,81.39-21.99,157.73-60.3,223.43H121.7Z"/>
          <path class="cls-1" d="M709.17,592.02h-36.21v36.15h-26.73v-78.29h-30.16v-54.81h64.64v-195.97h-222.37v64.23h-26.27v-64.23h-22.12v64.23h-26.27v-64.23h-23.31v90.5h-72.33v27.5h-27.5v29.05h-23.73v81.84h51.23v-29.06h23.73v-40.92h48.6v20.19h65.96v36.26h-39.72v69.86h32.61v28.39h104.03v42.14h111.12v36.15h72.41v-36.15h38.59v-48.57h36.21v-62.84h-72.41v48.57ZM601.25,324.96h45.57v66.79h-45.57v-66.79ZM509.07,391.75v-66.79h45.57v66.79h-45.57ZM605.36,467.29h-54.35v-19.33h-24.51v-33.16h103.02v33.16h-24.16v19.33Z"/>
          <polygon class="cls-1" points="394.77 604.7 362.23 604.7 362.23 571.43 278.5 571.43 278.5 604.7 253.22 604.7 253.22 627.1 226.92 627.1 226.92 692.09 254.11 692.09 254.11 667.54 311.77 667.54 311.77 634.27 336.22 634.27 336.22 667.54 394.77 667.54 394.77 658.68 441.57 658.68 441.57 631.5 394.77 631.5 394.77 604.7"/>
          <polygon class="cls-1" points="544.65 271.73 733.62 271.73 733.62 252.26 750.92 252.26 750.92 225.08 733.62 225.08 733.62 211.84 637.47 211.84 637.47 168.59 588.9 168.59 588.9 138.65 429.04 138.65 429.04 168.59 396.82 168.59 396.82 176.21 396.82 211.84 360.36 211.84 360.36 271.73 396.82 271.73 544.65 271.73"/>
          <polygon class="cls-1" points="745.37 413.23 704.12 413.23 704.12 495.07 770.99 495.07 770.99 460.8 796.61 460.8 796.61 378.96 745.37 378.96 745.37 413.23"/>
        </g>
      </g>
      <g>
        <path class="cls-2" d="M1283.2,110.82c39.3,0,70.04,8.74,92.19,26.23,22.15,17.49,33.23,43.56,33.23,78.2,0,10.33-1.34,20.07-4,29.23-2.67,9.17-6.25,17.33-10.74,24.48-4.5,7.17-9.75,13.33-15.74,18.49-6,5.17-12.33,9.08-18.99,11.74v14.49c4.66,1,9.07,2.5,13.24,4.5,4.16,2,7.91,4.67,11.24,7.99,3.33,3.33,6.07,7.25,8.24,11.74,2.16,4.5,3.75,9.58,4.75,15.24l15.49,107.43h-87.95l-8.99-84.95c-.34-5-1.34-9.16-3-12.49-1.67-3.33-3.75-6-6.25-8-2.5-2-5.42-3.41-8.74-4.25-3.33-.83-6.83-1.25-10.49-1.25h-44.47v110.93h-82.45V110.82h123.42ZM1300.19,268.97c5.66-1.5,10.57-3.91,14.74-7.25,4.16-3.33,7.49-7.75,9.99-13.24,2.5-5.5,3.75-12.07,3.75-19.74s-1.25-13.99-3.75-18.99c-2.5-5-5.92-8.91-10.24-11.74-4.33-2.83-9.5-4.75-15.49-5.75-6-1-12.49-1.5-19.49-1.5h-37.48v80.45h39.48c6.66,0,12.82-.75,18.49-2.25Z"/>
        <path class="cls-2" d="M1448.1,279.97c6.66-16.15,15.9-29.9,27.73-41.22,11.82-11.32,25.9-19.99,42.22-25.98,16.32-6,33.98-8.99,52.97-8.99s36.64,3,52.97,8.99c16.32,6,30.4,14.66,42.22,25.98,11.82,11.33,21.07,25.07,27.73,41.22,6.66,16.16,9.99,34.56,9.99,55.21,0,21.66-3.33,40.72-9.99,57.22-6.67,16.49-15.91,30.32-27.73,41.47-11.83,11.16-25.91,19.57-42.22,25.23-16.32,5.66-33.98,8.49-52.97,8.49s-36.65-2.83-52.97-8.49c-16.32-5.66-30.4-14.07-42.22-25.23-11.83-11.16-21.07-24.98-27.73-41.47-6.67-16.49-9.99-35.56-9.99-57.22s3.33-39.05,9.99-55.21ZM1622.49,307.7c-3-7.99-7.08-14.49-12.24-19.49-5.17-5-11.08-8.74-17.74-11.24-6.67-2.5-13.83-3.75-21.49-3.75s-14.41,1.25-21.24,3.75c-6.83,2.5-12.83,6.25-17.99,11.24-5.17,5-9.25,11.49-12.24,19.49-3,7.99-4.5,17.49-4.5,28.48s1.5,19.91,4.5,27.73c3,7.83,7.07,14.33,12.24,19.49,5.16,5.17,11.16,8.92,17.99,11.24,6.82,2.34,13.91,3.5,21.24,3.5s14.82-1.16,21.49-3.5c6.66-2.33,12.57-6.07,17.74-11.24,5.16-5.16,9.25-11.66,12.24-19.49,3-7.82,4.5-17.07,4.5-27.73s-1.5-20.49-4.5-28.48Z"/>
        <path class="cls-2" d="M1811.87,210.76l3.5,36.48h9.49c7.32-14.99,16.4-25.98,27.23-32.98,10.82-7,24.23-10.49,40.23-10.49,8.66,0,16.4.92,23.24,2.75,6.82,1.84,12.9,4.58,18.24,8.24,5.33,3.67,9.82,8.17,13.49,13.49,3.66,5.33,6.66,11.66,9,18.99h9c6.32-15.32,15.4-26.4,27.23-33.23,11.82-6.82,26.23-10.24,43.22-10.24,12.99,0,24.31,2,33.98,6,9.66,4,17.82,9.67,24.48,16.99,6.66,7.33,11.66,16.08,14.99,26.23,3.32,10.17,5,21.57,5,34.23v173.39h-76.95v-145.91c0-7.32-.84-13.66-2.5-18.99-1.67-5.32-4.08-9.74-7.24-13.24-3.17-3.5-6.92-6.07-11.24-7.74-4.33-1.66-9.17-2.5-14.49-2.5-11.33,0-20.41,4-27.23,11.99-6.83,8-10.24,22.82-10.24,44.47v131.92h-75.45v-145.91c0-7.32-.83-13.66-2.5-18.99-1.67-5.32-4.08-9.74-7.25-13.24-3.17-3.5-7-6.07-11.49-7.74-4.5-1.66-9.42-2.5-14.74-2.5-5.67,0-10.83.92-15.49,2.75-4.67,1.84-8.58,4.92-11.74,9.24-3.17,4.33-5.67,10.17-7.5,17.49-1.83,7.33-2.75,16.33-2.75,26.98v131.92h-76.95v-249.84h73.45Z"/>
        <path class="cls-2" d="M1283.2,516.47c39.3,0,70.04,8.74,92.19,26.23,22.15,17.49,33.23,43.56,33.23,78.2,0,10.33-1.34,20.07-4,29.23-2.67,9.17-6.25,17.33-10.74,24.48-4.5,7.17-9.75,13.33-15.74,18.49-6,5.17-12.33,9.08-18.99,11.74v14.49c4.66,1,9.07,2.5,13.24,4.5,4.16,2,7.91,4.67,11.24,7.99,3.33,3.33,6.07,7.25,8.24,11.74,2.16,4.5,3.75,9.58,4.75,15.24l15.49,107.43h-87.95l-8.99-84.95c-.34-5-1.34-9.16-3-12.49-1.67-3.33-3.75-6-6.25-8-2.5-2-5.42-3.41-8.74-4.25-3.33-.83-6.83-1.25-10.49-1.25h-44.47v110.93h-82.45v-349.78h123.42ZM1300.19,674.62c5.66-1.5,10.57-3.91,14.74-7.25,4.16-3.33,7.49-7.75,9.99-13.24,2.5-5.5,3.75-12.07,3.75-19.74s-1.25-13.99-3.75-18.99c-2.5-5-5.92-8.91-10.24-11.74-4.33-2.83-9.5-4.75-15.49-5.75-6-1-12.49-1.5-19.49-1.5h-37.48v80.45h39.48c6.66,0,12.82-.75,18.49-2.25Z"/>
        <path class="cls-2" d="M1449.59,616.41h76.95v145.91c0,7.33,1,13.66,3,18.99,2,5.33,4.75,9.74,8.24,13.24,3.5,3.5,7.82,6.08,12.99,7.74,5.16,1.67,10.74,2.5,16.74,2.5s11.57-.91,16.74-2.75c5.16-1.83,9.49-4.91,12.99-9.24,3.5-4.33,6.25-10.16,8.24-17.49,2-7.32,3-16.32,3-26.98v-131.92h76.95v249.84h-73.45l-3.5-36.48h-9.49c-7.33,14.99-16.91,25.98-28.73,32.98-11.83,7-25.73,10.49-41.72,10.49-12.67,0-23.91-2-33.73-6-9.83-4-18.08-9.66-24.73-16.99-6.67-7.32-11.74-16.15-15.24-26.48-3.5-10.32-5.25-21.65-5.25-33.98v-173.39Z"/>
        <path class="cls-2" d="M1801.86,616.41l3.5,36.48h9.49c7.32-14.99,17.07-25.98,29.23-32.98,12.16-7,26.4-10.49,42.72-10.49,12.99,0,24.48,2,34.48,6s18.4,9.67,25.23,16.99c6.82,7.33,11.99,16.08,15.49,26.23,3.5,10.17,5.25,21.57,5.25,34.23v173.39h-76.95v-145.91c0-7.32-.92-13.66-2.75-18.99-1.83-5.32-4.5-9.74-7.99-13.24-3.5-3.5-7.74-6.07-12.74-7.74-5-1.66-10.49-2.5-16.49-2.5-6.67,0-12.74.92-18.24,2.75-5.5,1.84-10.24,4.92-14.24,9.24-4,4.33-7.08,10.17-9.25,17.49-2.17,7.33-3.25,16.33-3.25,26.98v131.92h-76.95v-249.84h73.45Z"/>
        <path class="cls-2" d="M2081.69,616.41l3.5,36.48h9.49c7.32-14.99,17.07-25.98,29.23-32.98,12.16-7,26.4-10.49,42.72-10.49,12.99,0,24.48,2,34.48,6,9.99,4,18.4,9.67,25.23,16.99,6.82,7.33,11.99,16.08,15.49,26.23,3.5,10.17,5.25,21.57,5.25,34.23v173.39h-76.95v-145.91c0-7.32-.92-13.66-2.75-18.99-1.83-5.32-4.5-9.74-7.99-13.24-3.5-3.5-7.74-6.07-12.74-7.74-5-1.66-10.49-2.5-16.49-2.5-6.67,0-12.74.92-18.24,2.75-5.5,1.84-10.24,4.92-14.24,9.24-4,4.33-7.08,10.17-9.25,17.49-2.17,7.33-3.25,16.33-3.25,26.98v131.92h-76.95v-249.84h73.45Z"/>
        <path class="cls-2" d="M2358.52,865.26c-15.99-5.33-29.82-13.49-41.47-24.49-11.66-10.99-20.82-24.81-27.48-41.47-6.67-16.65-9.99-36.14-9.99-58.46s3.25-40.14,9.74-56.46c6.5-16.32,15.4-30.06,26.73-41.22,11.32-11.16,24.81-19.57,40.48-25.23,15.65-5.66,32.48-8.49,50.47-8.49,19.65,0,37.14,2.92,52.47,8.74,15.32,5.83,28.23,13.83,38.73,23.99,10.49,10.17,18.49,22.41,23.98,36.73,5.5,14.33,8.24,29.98,8.24,46.97,0,6.67-.25,13.08-.75,19.24-.5,6.17-1.09,12.08-1.75,17.74h-172.89c.66,8,2.41,14.83,5.25,20.49,2.83,5.67,6.66,10.33,11.49,13.99,4.83,3.67,10.41,6.42,16.74,8.24,6.33,1.84,13.32,2.75,20.99,2.75,6.33,0,11.91-.5,16.74-1.5,4.82-1,9-2.5,12.49-4.5,3.5-2,6.41-4.32,8.74-7,2.33-2.66,4.5-5.5,6.5-8.49h72.45c-2,12.99-6,24.82-11.99,35.48-6,10.67-13.91,19.74-23.74,27.23-9.83,7.5-21.41,13.33-34.73,17.49-13.33,4.16-28.48,6.25-45.47,6.25-18.66,0-35.98-2.67-51.97-7.99ZM2457.95,714.85c-.67-6.66-2.33-12.74-5-18.24-2.67-5.5-6.17-10.07-10.49-13.74-4.33-3.66-9.5-6.5-15.49-8.49-6-2-12.83-3-20.49-3-6,0-11.91.75-17.74,2.25-5.83,1.5-10.99,4-15.49,7.5-4.5,3.5-8.42,7.99-11.74,13.49-3.33,5.5-5.5,12.24-6.49,20.24h102.93Z"/>
        <path class="cls-2" d="M2597.37,792.8v-93.94h-43.97v-82.45h85.95l3,43.47h13.49c2.66-9.66,6.32-17.57,10.99-23.74,4.66-6.16,9.75-10.99,15.24-14.49,5.5-3.5,11.24-5.91,17.24-7.25,6-1.33,11.66-2,16.99-2,18.99,0,34.06,5.83,45.22,17.49,11.16,11.66,16.74,28.98,16.74,51.97,0,3.67-.17,7.42-.5,11.24-.34,3.83-.84,7.75-1.5,11.74h-70.46c0-1.66-.09-3.33-.25-5-.17-1.66-.42-2.83-.75-3.5-1.34-4-3.33-6.82-6-8.49-2.67-1.66-6-2.5-9.99-2.5-2.67,0-5.08.5-7.25,1.5-2.17,1-4,2.5-5.5,4.5-1.5,2-2.67,4.58-3.5,7.75-.84,3.17-1.25,6.75-1.25,10.74v82.95h99.94v73.45h-217.86v-73.45h43.97Z"/>
      </g>
    </g>
  </g>
</svg>